<?xml version="1.0" encoding="UTF-8"?>
<svg width="21px" height="20px" viewBox="0 0 21 20" version="1.1" xmlns="http://www.w3.org/2000/svg" xmlns:xlink="http://www.w3.org/1999/xlink">
    <!-- Generator: Sketch 57.1 (83088) - https://sketch.com -->
    <title>github</title>
    <desc>Created with Sketch.</desc>
    <g id="github" stroke="none" stroke-width="1" fill="none" fill-rule="evenodd">
        <path d="M10.2521279,0 C4.59104993,0 4.97379915e-14,4.5904205 4.97379915e-14,10.2533868 C4.97379915e-14,14.7833822 2.93754182,18.6260419 7.01183112,19.9818304 C7.52481518,20.0762447 7.71175538,19.7596422 7.71175538,19.4877292 C7.71175538,19.2441405 7.70294338,18.5996059 7.69790796,17.7442129 C4.84596839,18.3635703 4.24423494,16.3695415 4.24423494,16.3695415 C3.77782858,15.1849574 3.10559917,14.8696139 3.10559917,14.8696139 C2.17467473,14.2338913 3.17609514,14.2464799 3.17609514,14.2464799 C4.20521039,14.3188641 4.74651872,15.30329 4.74651872,15.30329 C5.66107802,16.869937 7.14652878,16.417378 7.73063823,16.1549064 C7.82379361,15.4927479 8.08878292,15.0408184 8.38146708,14.784641 C6.10482496,14.525946 3.71110918,13.6460053 3.71110918,9.7171139 C3.71110918,8.59799041 4.11079615,7.68217225 4.76666042,6.96588286 C4.66091647,6.7065584 4.30906606,5.66359573 4.86736895,4.25241751 C4.86736895,4.25241751 5.72779742,3.97672792 7.68657825,5.30356275 C8.50420559,5.07570971 9.38162862,4.96241262 10.2533868,4.95800662 C11.1245156,4.96241262 12.0013092,5.07570971 12.8201954,5.30356275 C14.7777173,3.97672792 15.6368869,4.25241751 15.6368869,4.25241751 C16.1964487,5.66359573 15.8445983,6.7065584 15.7394838,6.96588286 C16.3966069,7.68217225 16.7931467,8.59799041 16.7931467,9.7171139 C16.7931467,13.6560761 14.3956544,14.5227989 12.1120885,14.7764585 C12.4796747,15.0930609 12.8076068,15.7187126 12.8076068,16.6748142 C12.8076068,18.045709 12.7950182,19.1516145 12.7950182,19.4877292 C12.7950182,19.7621599 12.9800701,20.0812801 13.4999779,19.981201 C17.5711201,18.6222653 20.5061442,14.7821233 20.5061442,10.2533868 C20.5061442,4.5904205 15.9150942,0 10.2521279,0" fill="#AEAEB2"></path>
    </g>
</svg>