<?xml version="1.0" encoding="UTF-8"?>
<svg width="23px" height="18px" viewBox="0 0 23 18" version="1.1" xmlns="http://www.w3.org/2000/svg" xmlns:xlink="http://www.w3.org/1999/xlink">
    <!-- Generator: Sketch 57.1 (83088) - https://sketch.com -->
    <title>twitter</title>
    <desc>Created with Sketch.</desc>
    <g id="twitter" stroke="none" stroke-width="1" fill="none" fill-rule="evenodd">
        <path d="M6.96643771,18 C15.3258085,18 19.8980317,11.0743224 19.8980317,5.068406 C19.8980317,4.87169407 19.8980317,4.67586824 19.8847404,4.48092849 C20.7742251,3.83754833 21.5420432,3.04092576 22.1522441,2.12836017 C21.3227569,2.49591177 20.4428256,2.736952 19.5418236,2.84343461 C20.4905989,2.27543517 21.2006931,1.38207055 21.539956,0.329597951 C20.6478032,0.858996989 19.6717652,1.23209103 18.6539617,1.43277971 C17.2451523,-0.065248717 15.0065675,-0.431896441 13.1934772,0.538431522 C11.3803868,1.50875948 10.4436976,3.57474729 10.9086511,5.57790762 C7.2543245,5.39470815 3.84959551,3.66867062 1.54179619,0.829352577 C0.335493748,2.90603218 0.951649669,5.56271958 2.94890673,6.89640918 C2.22562817,6.8749725 1.51811931,6.67986052 0.886089763,6.32753955 C0.886089763,6.34614744 0.886089763,6.36564141 0.886089763,6.38513539 C0.886681788,8.54860593 2.41171613,10.4120015 4.53234914,10.8403947 C3.86323582,11.0228761 3.16119664,11.0495512 2.48016525,10.9183706 C3.07557143,12.7697868 4.78184947,14.0381012 6.72630739,14.0746224 C5.1169336,15.3394552 3.12883568,16.0260824 1.0819156,16.0240198 C0.720305531,16.0233256 0.359047174,16.0014312 5.5067062e-14,15.9584492 C2.078444,17.2922593 4.49682881,17.9997492 6.96643771,17.9964556" fill="#AEAEB2" fill-rule="nonzero"></path>
    </g>
</svg>